<mxfile host="app.diagrams.net" modified="2024-02-05T02:51:07.764Z" agent="Mozilla/5.0 (Windows NT 10.0; Win64; x64) AppleWebKit/537.36 (KHTML, like Gecko) Chrome/120.0.0.0 Safari/537.36" version="23.1.1" etag="L47f_XnlheFZWYEfgRXN" type="github">
  <diagram name="Page-1" id="xxe8QerPu6EGGeBREE1S">
    <mxGraphModel>
      <root>
        <mxCell id="0" />
        <mxCell id="1" parent="0" />
      </root>
    </mxGraphModel>
  </diagram>
</mxfile>
